name D:\school\WTK\thesis\model\3dpredictsim\Results\MidTarsalJoint\Fal_s1_bCst_PF_Natali2010_ls150_MT_k30_MTP_T2_ig24_PFx10.mot
datacolumns 128
datarows 4
range 0.55461599 0.58789295
endheader
time	pelvis_tilt	pelvis_list	pelvis_rotation	pelvis_tx	pelvis_ty	pelvis_tz	hip_flexion_l	hip_adduction_l	hip_rotation_l	hip_flexion_r	hip_adduction_r	hip_rotation_r	knee_angle_l	knee_angle_r	ankle_angle_l	ankle_angle_r	subtalar_angle_l	subtalar_angle_r	tmt_angle_l	tmt_angle_r	mtp_angle_l	mtp_angle_r	lumbar_extension	lumbar_bending	lumbar_rotation	arm_flex_l	arm_add_l	arm_rot_l	arm_flex_r	arm_add_r	arm_rot_r	elbow_flex_l	elbow_flex_r	pro_sup_l	pro_sup_r	glut_med1_l/activation	glut_med2_l/activation	glut_med3_l/activation	glut_min1_l/activation	glut_min2_l/activation	glut_min3_l/activation	semimem_l/activation	semiten_l/activation	bifemlh_l/activation	bifemsh_l/activation	sar_l/activation	add_long_l/activation	add_brev_l/activation	add_mag1_l/activation	add_mag2_l/activation	add_mag3_l/activation	tfl_l/activation	pect_l/activation	grac_l/activation	glut_max1_l/activation	glut_max2_l/activation	glut_max3_l/activation	iliacus_l/activation	psoas_l/activation	quad_fem_l/activation	gem_l/activation	peri_l/activation	rect_fem_l/activation	vas_med_l/activation	vas_int_l/activation	vas_lat_l/activation	med_gas_l/activation	lat_gas_l/activation	soleus_l/activation	tib_post_l/activation	flex_dig_l/activation	flex_hal_l/activation	tib_ant_l/activation	per_brev_l/activation	per_long_l/activation	per_tert_l/activation	ext_dig_l/activation	ext_hal_l/activation	ercspn_l/activation	intobl_l/activation	extobl_l/activation	glut_med1_r/activation	glut_med2_r/activation	glut_med3_r/activation	glut_min1_r/activation	glut_min2_r/activation	glut_min3_r/activation	semimem_r/activation	semiten_r/activation	bifemlh_r/activation	bifemsh_r/activation	sar_r/activation	add_long_r/activation	add_brev_r/activation	add_mag1_r/activation	add_mag2_r/activation	add_mag3_r/activation	tfl_r/activation	pect_r/activation	grac_r/activation	glut_max1_r/activation	glut_max2_r/activation	glut_max3_r/activation	iliacus_r/activation	psoas_r/activation	quad_fem_r/activation	gem_r/activation	peri_r/activation	rect_fem_r/activation	vas_med_r/activation	vas_int_r/activation	vas_lat_r/activation	med_gas_r/activation	lat_gas_r/activation	soleus_r/activation	tib_post_r/activation	flex_dig_r/activation	flex_hal_r/activation	tib_ant_r/activation	per_brev_r/activation	per_long_r/activation	per_tert_r/activation	ext_dig_r/activation	ext_hal_r/activation	ercspn_r/activation	intobl_r/activation	extobl_r/activation	
          0.55461599	         -2.92995108	          2.24338545	         -4.70661052	          0.69326999	          0.92099406	          0.00128178	         27.82116385	          3.69956759	         -2.35763445	        -16.32957046	         -0.89964984	          5.85609499	         -7.95929742	         -7.33977929	          6.03794429	          3.42164310	         -5.28269770	          8.62030298	         -1.91810918	          1.32182741	          3.77417829	         -0.56714716	         -2.29523887	         -0.58134129	          2.25938940	         -5.40939820	        -13.45550011	          5.42889616	          4.76422175	        -13.45197619	         14.35582759	         16.98268712	         35.38247693	         86.51662706	         86.51662706	          0.05924351	          0.05924351	          0.05000037	          0.05924366	          0.05924361	          0.05763861	          0.21119208	          0.07780639	          0.15574956	          0.05000083	          0.05000046	          0.15616267	          0.30277192	          0.14310779	          0.18574891	          0.11870701	          0.05000026	          0.06960842	          0.13737669	          0.05000174	          0.05716351	          0.16187411	          0.05000093	          0.05000027	          0.19218871	          0.26840169	          0.12511285	          0.05000056	          0.13112939	          0.13006988	          0.11361376	          0.05750847	          0.05675312	          0.05488677	          0.05000007	          0.05928666	          0.05000055	          0.47877526	          0.24303256	          0.16624028	          0.15074316	          0.45577936	          0.19101136	          0.06204861	          0.10928801	          0.10002906	          0.29185352	          0.10374154	          0.08075448	          0.30187292	          0.20313305	          0.11674880	          0.05000195	          0.05000062	          0.05000034	          0.05690549	          0.11673952	          0.06577766	          0.05001363	          0.05000175	          0.05000499	          0.05000114	          0.33224173	          0.06677420	          0.05000987	          0.05000548	          0.05000135	          0.05000133	          0.42759341	          0.68892140	          0.05000026	          0.05000069	          0.05880438	          0.20208534	          0.05000084	          0.05000085	          0.05000078	          0.30218291	          0.40893065	          0.36432895	          0.26412138	          0.26286534	          0.32795034	          0.05000009	          0.06561229	          0.18563807	          0.05000078	          0.05000017	          0.05000051	          0.05000004	          0.05000010	          0.05000020	
          0.56570831	         -2.92970312	          2.32545627	         -4.96990704	          0.70977220	          0.92023582	          0.00108128	         27.13304956	          4.04379837	         -2.09466315	        -16.21614233	         -1.15884468	          5.68892808	         -8.13474026	         -9.22432472	          5.37371982	          2.92695845	         -5.55209906	          9.36715471	         -1.89110569	          0.85522495	          3.55348471	          0.40947796	         -2.10348286	         -0.77515104	          2.32335223	         -6.17726409	        -13.45055034	          5.27412226	          4.48462147	        -13.45533294	         14.61650752	         16.57174306	         36.49516807	         86.51662706	         86.51662706	          0.05000003	          0.05000011	          0.10177769	          0.05000012	          0.05000013	          0.05000017	          0.17824104	          0.06566670	          0.13144852	          0.05000048	          0.05204797	          0.13179823	          0.33664847	          0.34395297	          0.22739286	          0.12215495	          0.05000065	          0.07026552	          0.15639539	          0.05363734	          0.07920085	          0.13678436	          0.05000041	          0.05924549	          0.49165079	          0.22652388	          0.10559199	          0.05925070	          0.12443791	          0.12543042	          0.09966999	          0.06302571	          0.07015832	          0.05000021	          0.05925891	          0.05003706	          0.05926034	          0.45846556	          0.27871079	          0.20320210	          0.12722330	          0.40206985	          0.16120863	          0.05236737	          0.09223615	          0.08442185	          0.24631664	          0.08755512	          0.06815472	          0.25477292	          0.17143898	          0.09853297	          0.05001953	          0.05000145	          0.05000240	          0.05000036	          0.09852551	          0.13791233	          0.05602937	          0.05925341	          0.05924652	          0.05927212	          0.28040361	          0.05637237	          0.05002546	          0.05004531	          0.05003765	          0.05013880	          0.36087747	          0.63926665	          0.05001945	          0.05924697	          0.05924433	          0.19375360	          0.11282826	          0.11777053	          0.10985534	          0.25503425	          0.34512660	          0.32994974	          0.25448177	          0.22328049	          0.30538593	          0.05000011	          0.05537524	          0.19427894	          0.05000034	          0.05000012	          0.05000047	          0.05737510	          0.06524800	          0.05847491	
          0.57680063	         -2.92643594	          2.41366771	         -5.20422552	          0.72654030	          0.91956077	          0.00090417	         26.35330214	          4.28931349	         -1.80837133	        -16.03435030	         -1.42370652	          5.51785350	         -8.53881753	        -11.21171038	          4.76995405	          2.27182649	         -5.83087268	         10.09567436	         -1.93401197	          0.23282106	          3.55695921	          1.75555980	         -1.89321294	         -0.98432214	          2.37437893	         -6.96671640	        -13.45474137	          5.16022511	          4.13146860	        -13.45141419	         14.81057239	         16.21358569	         37.58314020	         86.51662706	         86.51662706	          0.23152266	          0.21536650	          0.26820291	          0.33304054	          0.22014038	          0.19480680	          0.15534967	          0.05912751	          0.11166764	          0.05013582	          0.05000136	          0.11123425	          0.28412236	          0.29028725	          0.19191379	          0.11845309	          0.05000142	          0.05930402	          0.13199409	          0.05000128	          0.07071169	          0.11544312	          0.05000234	          0.05000188	          0.41494010	          0.19118028	          0.20602262	          0.05000608	          0.10502263	          0.10586030	          0.08411913	          0.05319213	          0.05921195	          0.05158602	          0.05001305	          0.05000131	          0.05001465	          0.51380524	          0.28716832	          0.17149731	          0.30645626	          0.48465229	          0.13605619	          0.05807369	          0.11676918	          0.07124978	          0.30902594	          0.07389423	          0.05752085	          0.30155938	          0.14469012	          0.08315932	          0.05000780	          0.05000073	          0.05000056	          0.05000089	          0.08315839	          0.11639457	          0.05000121	          0.05000871	          0.05000535	          0.05002455	          0.32457382	          0.05006018	          0.05000200	          0.05002233	          0.05000495	          0.05000169	          0.30457144	          0.60763176	          0.05000045	          0.05000332	          0.05000118	          0.16352305	          0.09522434	          0.09939549	          0.09271522	          0.21524204	          0.29127759	          0.27846870	          0.21634528	          0.18844396	          0.25773901	          0.05000009	          0.09416087	          0.20326992	          0.05000047	          0.05000012	          0.05000048	          0.05000026	          0.05506757	          0.05000018	
          0.58789295	         -2.92217026	          2.49828318	         -5.40447909	          0.74339910	          0.91900973	          0.00070519	         25.52364982	          4.50447644	         -1.52236190	        -15.74534671	         -1.68541118	          5.36089291	         -8.88899285	        -13.34534810	          4.22276017	          1.42383972	         -6.08996133	         10.81618813	         -1.93356319	         -0.51967156	          3.52045827	          3.49358043	         -1.68416202	         -1.19727860	          2.41591843	         -7.73758562	        -13.45995214	          5.08518478	          3.73444292	        -13.44991831	         14.95999397	         15.89055945	         38.62573470	         86.51662706	         86.51662706	          0.32724381	          0.31280336	          0.33611951	          0.28107793	          0.18755622	          0.20077227	          0.13117992	          0.07579219	          0.09600965	          0.05022366	          0.05000204	          0.09387878	          0.23979171	          0.24499501	          0.16197093	          0.15257676	          0.05000090	          0.05005173	          0.11140015	          0.19871962	          0.15560187	          0.13403593	          0.05000019	          0.05000021	          0.35019835	          0.16135115	          0.17387828	          0.05000018	          0.08863722	          0.08934449	          0.07099499	          0.05000010	          0.05000022	          0.05000004	          0.05000017	          0.05000061	          0.05000057	          0.58876825	          0.32575210	          0.18404738	          0.44831653	          0.51597652	          0.24462478	          0.08166592	          0.09855008	          0.06013292	          0.27007575	          0.06236481	          0.05000068	          0.25450891	          0.12211474	          0.07018437	          0.05000663	          0.05000056	          0.05000050	          0.05000036	          0.07018529	          0.11990233	          0.05001956	          0.05000703	          0.05001926	          0.05000234	          0.31384774	          0.05012906	          0.05000497	          0.05003569	          0.05001631	          0.05000875	          0.25705019	          0.55794484	          0.05000169	          0.05000390	          0.05000049	          0.13800920	          0.11202956	          0.08393592	          0.11670320	          0.18165848	          0.24583046	          0.23502007	          0.18258977	          0.15904202	          0.21752513	          0.05000008	          0.07976114	          0.20469691	          0.05000041	          0.05000044	          0.05000043	          0.06359513	          0.05000003	          0.05000009	
